<svg width="40" height="41" viewBox="0 0 40 41" fill="none" xmlns="http://www.w3.org/2000/svg">
<path d="M35.7251 32.2137C34.7422 31.2487 33.7855 30.2561 32.8562 29.2369C32.0756 28.4238 31.6055 27.8323 31.6055 27.8323L25.7293 24.9566C28.0818 22.2221 29.3802 18.7018 29.3809 15.0561C29.3809 6.7559 22.7912 0 14.6904 0C6.58972 0 0 6.7559 0 15.0561C0 23.3564 6.58972 30.1123 14.6904 30.1123C18.3903 30.1123 21.7629 28.6927 24.3505 26.3719L27.1563 32.3943C27.1563 32.3943 27.7335 32.8761 28.5268 33.6763C29.3389 34.457 30.4071 35.5131 31.4313 36.6165L34.2812 39.6105L35.5488 41L40 36.438L38.6443 35.1389C37.8489 34.3387 36.787 33.2762 35.7251 32.2137ZM14.6904 25.8105C8.90451 25.8105 4.19727 20.9861 4.19727 15.0561C4.19727 9.12617 8.90451 4.30175 14.6904 4.30175C20.4764 4.30175 25.1836 9.12617 25.1836 15.0561C25.1836 20.9861 20.4764 25.8105 14.6904 25.8105Z" fill="#4a5c6a"/>
</svg>