<svg width="22" height="32" viewBox="0 0 22 32" fill="none" xmlns="http://www.w3.org/2000/svg">
<path d="M0.940314 0.697281C0.424453 1.14388 0.134659 1.74953 0.134659 2.38103C0.134659 3.01252 0.424453 3.61817 0.940314 4.06477L14.5611 15.8534L0.940314 27.642C0.439073 28.0911 0.161719 28.6927 0.167989 29.3171C0.174258 29.9416 0.46365 30.5389 0.973835 30.9804C1.48402 31.422 2.17418 31.6725 2.89566 31.6779C3.61714 31.6833 4.31222 31.4433 4.83119 31.0094L20.3975 17.5371C20.9133 17.0905 21.2031 16.4849 21.2031 15.8534C21.2031 15.2219 20.9133 14.6162 20.3975 14.1696L4.83119 0.697281C4.31518 0.250812 3.6154 0 2.88576 0C2.15611 0 1.45633 0.250812 0.940314 0.697281Z" fill="black"/>
</svg>